<svg width="24" height="24" viewBox="0 0 24 24" fill="none" xmlns="http://www.w3.org/2000/svg">
<path d="M10.9 2.1C6.3 2.6 2.6 6.3 2.1 10.8C1.5 15.8 4.6 20.1 9 21.5V19.2C9 19.2 8.6 19.3 8.1 19.3C6.7 19.3 6.1 18.1 6 17.4C5.9 17 5.7 16.7 5.4 16.4C5.1 16.3 5 16.3 5 16.2C5 16 5.3 16 5.4 16C6 16 6.5 16.7 6.7 17C7.2 17.8 7.8 18 8.1 18C8.5 18 8.8 17.9 9 17.8C9.1 17.1 9.4 16.4 10 16C7.7 15.5 6 14.2 6 12C6 10.9 6.5 9.8 7.2 9C7.1 8.8 7 8.3 7 7.6C7 7.2 7 6.6 7.3 6C7.3 6 8.7 6 10.1 7.3C10.6 7.1 11.3 7 12 7C12.7 7 13.4 7.1 14 7.3C15.3 6 16.8 6 16.8 6C17 6.6 17 7.2 17 7.6C17 8.4 16.9 8.8 16.8 9C17.5 9.8 18 10.8 18 12C18 14.2 16.3 15.5 14 16C14.6 16.5 15 17.4 15 18.3V21.6C19.1 20.3 22 16.5 22 12.1C22 6.1 16.9 1.4 10.9 2.1Z" fill="white"/>
</svg>
