<svg width="20" height="25" viewBox="0 0 20 25" fill="none" xmlns="http://www.w3.org/2000/svg">
<path fill-rule="evenodd" clip-rule="evenodd" d="M4.12214 12.811C4.10908 15.2951 5.93057 16.776 8.83729 16.1027V9.51939C5.89383 8.62299 4.13445 10.4365 4.12214 12.811ZM8.92621 6.10352e-05H12.9296V18.9496C9.09222 19.577 5.41694 19.9749 2.78767 18.5047C-0.597747 16.6119 -0.869908 10.5969 1.80898 7.91796C3.16721 6.55982 5.90159 5.60366 8.83729 6.22762V0.267016C8.82962 0.140689 8.82252 0.0149277 8.92621 6.10352e-05" fill="white"/>
<path fill-rule="evenodd" clip-rule="evenodd" d="M19.4241 4.18134H15.4207V0H19.4241V4.18134V4.18134Z" fill="white"/>
<path fill-rule="evenodd" clip-rule="evenodd" d="M19.4241 6.29865C19.4195 9.24666 19.4202 11.365 19.4199 14.9465C19.2498 18.4661 19.2894 21.2688 18.0007 22.9529C17.7465 23.285 17.2067 23.7695 16.7551 24.1095C16.3759 24.3951 15.653 24.974 15.2427 24.9992C14.8291 25.0246 13.7664 24.425 13.2854 24.1985C12.6539 23.901 12.0701 23.506 11.4172 23.3089C12.9401 22.3652 14.3856 21.6577 14.9758 19.7503C15.489 18.0914 15.4206 15.6875 15.4206 13.3448C15.4206 11.0315 15.431 8.34212 15.431 6.29969L19.4241 6.29878V6.29865Z" fill="white"/>
</svg>
