<svg width="17" height="25" viewBox="0 0 17 25" fill="none" xmlns="http://www.w3.org/2000/svg">
<g clip-path="url(#clip0_3:88)">
<path d="M4.16828 25C6.46827 25 8.33492 23.1333 8.33492 20.8333V16.6667H4.16828C1.8683 16.6667 0.00164795 18.5333 0.00164795 20.8333C0.00164795 23.1333 1.8683 25 4.16828 25Z" fill="white"/>
<path d="M0.00164795 12.4999C0.00164795 10.2 1.8683 8.33331 4.16828 8.33331H8.33492V16.6666H4.16828C1.8683 16.6666 0.00164795 14.7999 0.00164795 12.4999Z" fill="white"/>
<path d="M0.00164795 4.16673C0.00164795 1.86673 1.8683 6.10352e-05 4.16828 6.10352e-05H8.33492V8.33339H4.16828C1.8683 8.33339 0.00164795 6.46673 0.00164795 4.16673Z" fill="white"/>
<path d="M8.33502 6.10352e-05H12.5017C14.8017 6.10352e-05 16.6684 1.86673 16.6684 4.16673C16.6684 6.46673 14.8017 8.33339 12.5017 8.33339H8.33502V6.10352e-05Z" fill="white"/>
<path d="M16.6684 12.4999C16.6684 14.7999 14.8017 16.6666 12.5017 16.6666C10.2017 16.6666 8.33502 14.7999 8.33502 12.4999C8.33502 10.2 10.2017 8.33331 12.5017 8.33331C14.8017 8.33331 16.6684 10.2 16.6684 12.4999Z" fill="white"/>
</g>
<defs>
<clipPath id="clip0_3:88">
<rect width="16.67" height="25" fill="white"/>
</clipPath>
</defs>
</svg>
