<svg width="25" height="25" viewBox="0 0 25 25" fill="none" xmlns="http://www.w3.org/2000/svg">
<path d="M12.5 0C5.59644 0 0 5.59642 0 12.5C0 19.4036 5.59647 25 12.5 25C19.4036 25 25 19.4036 25 12.5C25 5.59642 19.4036 0 12.5 0ZM2.68593 12.6303L12.3697 22.3141C7.05219 22.2448 2.75522 17.9478 2.68593 12.6303ZM14.6969 22.0687L2.93132 10.3031C3.92899 5.93977 7.83421 2.68429 12.5 2.68429C15.7615 2.68429 18.6509 4.2754 20.4358 6.72328L19.0768 7.92245C17.6289 5.84607 15.2233 4.48718 12.5 4.48718C9.0327 4.48718 6.08003 6.68957 4.96398 9.77164L15.2284 20.036C17.7211 19.1334 19.6382 17.0292 20.2803 14.4231H16.0256V12.5H20.5128V12.5H22.3157V12.5C22.3157 17.1658 19.0602 21.071 14.6969 22.0687Z" fill="#333"/>
</svg>
