<svg width="26" height="25" viewBox="0 0 26 25" fill="none" xmlns="http://www.w3.org/2000/svg">
<path d="M1.648 5.87162C-0.649579 9.17395 -0.363561 13.4703 1.39159 16.9791C1.43332 17.0632 1.47706 17.146 1.52013 17.2288C1.54773 17.2813 1.57363 17.3351 1.60223 17.3869C1.61839 17.4179 1.63655 17.4482 1.65338 17.4778C1.68332 17.5336 1.71395 17.5868 1.7449 17.6413C1.79941 17.7375 1.85527 17.8331 1.91247 17.9287C1.94411 17.9812 1.9754 18.0337 2.00804 18.0861C2.0713 18.1884 2.13624 18.2894 2.20253 18.3903C2.23013 18.4334 2.25704 18.4765 2.28531 18.5182C2.37683 18.6548 2.47038 18.7908 2.56694 18.9247C2.56934 18.9281 2.57197 18.9321 2.575 18.9354C2.59017 18.957 2.60698 18.9778 2.62245 18.9994C2.7059 19.1144 2.79204 19.2282 2.87919 19.3406C2.91117 19.3816 2.94346 19.4227 2.97577 19.4637C3.0535 19.5613 3.13257 19.6582 3.21299 19.7551C3.24294 19.7915 3.27322 19.8278 3.30351 19.8635C3.41152 19.9907 3.52155 20.1172 3.63393 20.241C3.636 20.2429 3.63866 20.2457 3.64065 20.2477C3.64537 20.2531 3.6494 20.2565 3.65343 20.2618C3.76313 20.3816 3.87552 20.4987 3.98926 20.6158C4.02459 20.6522 4.0606 20.6885 4.09694 20.7242C4.1851 20.813 4.2746 20.9005 4.36512 20.9873C4.4018 21.0223 4.43814 21.058 4.47482 21.0916C4.59562 21.2054 4.71776 21.3171 4.84227 21.4261C4.84433 21.428 4.84595 21.4296 4.84799 21.4308C4.86918 21.4497 4.89106 21.4672 4.91192 21.4853C5.02162 21.5802 5.13333 21.6744 5.24571 21.7673C5.29147 21.8043 5.33791 21.8407 5.38401 21.8777C5.47587 21.9511 5.56874 22.0237 5.66228 22.0951C5.71175 22.1328 5.76121 22.1704 5.81101 22.2081C5.91431 22.2842 6.01829 22.3589 6.12327 22.4322C6.16163 22.4598 6.19865 22.4867 6.237 22.513C6.24776 22.5204 6.25754 22.5278 6.26829 22.5352C6.3679 22.6039 6.46985 22.6698 6.57148 22.7358C6.61523 22.7647 6.65863 22.795 6.70272 22.8232C6.85885 22.9222 7.01735 23.0198 7.1775 23.114C7.22091 23.1389 7.26499 23.1631 7.30873 23.188C7.4265 23.256 7.54495 23.3226 7.66507 23.3879C7.73001 23.4229 7.79664 23.4559 7.86225 23.4895C7.94705 23.5339 8.03117 23.579 8.11731 23.6221C8.13682 23.6315 8.15702 23.6409 8.1762 23.6503C8.21086 23.6671 8.24585 23.6833 8.28051 23.7008C8.4141 23.7647 8.5487 23.8273 8.68465 23.8879C8.71359 23.9007 8.74152 23.9135 8.77012 23.9263C8.92591 23.9942 9.08304 24.0595 9.24154 24.1221C9.27956 24.1376 9.31792 24.1524 9.35628 24.1672C9.50299 24.2237 9.65173 24.2796 9.80113 24.3321C9.81998 24.3388 9.83815 24.3449 9.85699 24.3516C10.0209 24.4088 10.1864 24.4619 10.353 24.5137C10.3927 24.5252 10.4327 24.538 10.4728 24.5494C10.6424 24.6006 10.8099 24.6618 10.9849 24.6941C22.0965 26.7205 25.3241 18.0167 25.3241 18.0167C22.6134 21.5483 17.8015 22.4798 13.2425 21.4428C13.0699 21.4037 12.9023 21.3499 12.7337 21.3001C12.691 21.2873 12.6489 21.2745 12.6069 21.2617C12.4423 21.2113 12.2791 21.1581 12.117 21.1022C12.0947 21.0942 12.0722 21.0861 12.0497 21.078C11.9043 21.0269 11.7606 20.973 11.6176 20.9178C11.5772 20.9017 11.5368 20.8862 11.4965 20.8701C11.3397 20.8081 11.1839 20.7435 11.0301 20.6762C10.9984 20.6628 10.9682 20.6486 10.9369 20.6352C10.8046 20.5753 10.6737 20.5147 10.5435 20.4521C10.5058 20.434 10.4681 20.4165 10.4298 20.3976C10.3275 20.3477 10.2263 20.2945 10.1255 20.2427C10.0579 20.2071 9.98928 20.1735 9.9223 20.1363C9.79908 20.0704 9.67807 20.0018 9.55761 19.9318C9.51681 19.9089 9.47546 19.8868 9.43439 19.8631C9.27424 19.7689 9.11601 19.6713 8.95944 19.5723C8.91616 19.5448 8.87399 19.5153 8.83126 19.4869C8.71769 19.4135 8.60467 19.3388 8.49331 19.2622C8.45637 19.2371 8.42081 19.2104 8.38442 19.1856C8.27692 19.1095 8.17052 19.0326 8.06494 18.9546C8.01698 18.919 7.96984 18.8832 7.92326 18.8476C7.8265 18.7735 7.7303 18.6988 7.63492 18.6221C7.59185 18.5878 7.54878 18.5535 7.50638 18.5192C7.38525 18.4196 7.26546 18.3193 7.14734 18.2163C7.13491 18.2056 7.12143 18.1948 7.10797 18.1834C6.98011 18.071 6.8546 17.9559 6.73044 17.8401C6.69443 17.8058 6.65944 17.7722 6.62411 17.7378C6.53224 17.6504 6.44173 17.5622 6.35289 17.472C6.31723 17.4364 6.28156 17.4014 6.24656 17.3657C6.1335 17.2499 6.02246 17.1328 5.91376 17.0137C5.90839 17.0077 5.90267 17.0023 5.89729 16.9962C5.78221 16.8704 5.66983 16.7418 5.55978 16.612C5.52984 16.5763 5.5009 16.542 5.47129 16.507C5.38918 16.4081 5.30775 16.3078 5.22834 16.2068C5.19857 16.1704 5.1688 16.1332 5.1393 16.0957C5.04365 15.9717 4.9502 15.8479 4.85869 15.7222C2.32755 12.2697 1.41825 7.50775 3.44127 3.59705" fill="#333"/>
<path d="M8.78016 3.08941C7.11857 5.48052 7.20874 8.68132 8.50491 11.2102C8.72228 11.6342 8.96657 12.0453 9.2398 12.437C9.4888 12.7937 9.76473 13.2184 10.0952 13.505C10.2149 13.637 10.3401 13.7655 10.468 13.892C10.5003 13.925 10.5333 13.9566 10.5662 13.9889C10.6904 14.1094 10.8166 14.2278 10.9471 14.3429C10.9525 14.3469 10.9572 14.3523 10.9626 14.3564C10.964 14.3578 10.9654 14.3583 10.9663 14.3598C11.1106 14.4864 11.2597 14.6082 11.4111 14.7279C11.4448 14.7535 11.4781 14.7804 11.5121 14.8067C11.6638 14.9231 11.8186 15.0375 11.9774 15.1465C11.9822 15.15 11.9862 15.1533 11.9909 15.1566C12.0609 15.2051 12.1322 15.2502 12.2032 15.2966C12.2372 15.3188 12.2695 15.3424 12.3039 15.3632C12.4173 15.4359 12.532 15.5066 12.6488 15.5746C12.6653 15.5846 12.6814 15.5934 12.6975 15.6028C12.7982 15.6607 12.9001 15.7179 13.0024 15.7731C13.0381 15.7932 13.0744 15.8108 13.1108 15.8296C13.1814 15.8666 13.2521 15.9043 13.3241 15.94C13.3349 15.9453 13.346 15.9501 13.3564 15.9548C13.5028 16.0268 13.6505 16.0961 13.8012 16.1621C13.8335 16.1762 13.8669 16.189 13.8995 16.2025C14.02 16.2536 14.1418 16.3034 14.2642 16.3505C14.3161 16.37 14.3685 16.3889 14.4204 16.4077C14.5314 16.4488 14.6428 16.4865 14.7552 16.5241C14.806 16.5403 14.8558 16.5571 14.9066 16.5726C15.0664 16.6224 15.2242 16.685 15.3908 16.7126C23.97 18.1339 25.9506 11.5286 25.9506 11.5286C24.1651 14.1001 20.7076 15.3269 17.018 14.3692C16.8541 14.3262 16.6926 14.2791 16.5321 14.2286C16.483 14.2138 16.4349 14.1976 16.3861 14.1815C16.272 14.1445 16.1586 14.1054 16.0462 14.0644C15.9947 14.0455 15.9432 14.0267 15.8928 14.0072C15.7696 13.9601 15.6478 13.9109 15.527 13.8598C15.494 13.8457 15.4607 13.8329 15.4284 13.8181C15.277 13.7521 15.1279 13.6828 14.9809 13.6101C14.9052 13.5731 14.8308 13.5341 14.7564 13.4957C14.7134 13.4735 14.67 13.4513 14.6269 13.4291C14.5313 13.3773 14.4364 13.3234 14.3429 13.2689C14.3207 13.2561 14.2975 13.244 14.2749 13.2306C14.1588 13.1626 14.0444 13.0926 13.931 13.0206C13.896 12.9984 13.8624 12.9742 13.8274 12.9513C13.7527 12.9028 13.678 12.8537 13.6046 12.8039C13.4465 12.6949 13.2927 12.5805 13.1409 12.4647C13.1059 12.4371 13.0709 12.4102 13.0366 12.3826C11.4216 11.1074 10.1414 9.36501 9.53279 7.38912C8.89493 5.33991 9.03248 3.03958 10.1376 1.17285" fill="#333"/>
<path d="M14.7786 1.01073C13.7991 2.45226 13.7029 4.24249 14.3826 5.83467C15.0993 7.52453 16.5681 8.85032 18.2822 9.47881C18.3529 9.50508 18.4236 9.52861 18.4952 9.55284C18.5265 9.56226 18.5575 9.57304 18.5891 9.58243C18.6901 9.61406 18.7903 9.65108 18.8947 9.67059C23.6318 10.5858 24.9166 7.23977 25.2587 6.74729C24.1331 8.36783 22.2416 8.7568 19.9209 8.19353C19.7376 8.14888 19.5361 8.08272 19.3594 8.02015C19.1328 7.93938 18.9095 7.84731 18.6926 7.74311C18.2805 7.54519 17.8877 7.30482 17.5236 7.02972C15.4468 5.45408 14.1567 2.44808 15.5118 0" fill="#333"/>
</svg>
