<svg width="25" height="25" viewBox="0 0 25 25" fill="none" xmlns="http://www.w3.org/2000/svg">
<g clip-path="url(#clip0_3:103)">
<path d="M24.1233 5.70401C24.1323 5.73713 24.1369 5.77129 24.1369 5.8056V11.1391C24.1369 11.2076 24.1189 11.2748 24.0846 11.3341C24.0502 11.3933 24.0009 11.4424 23.9415 11.4765L19.465 14.0538V19.1623C19.465 19.3013 19.3911 19.4296 19.2706 19.4996L9.92618 24.8789C9.90479 24.891 9.88146 24.8988 9.85813 24.9071C9.84938 24.91 9.84111 24.9153 9.83188 24.9177C9.76655 24.9349 9.69789 24.9349 9.63257 24.9177C9.62188 24.9148 9.61216 24.909 9.60195 24.9051C9.58056 24.8973 9.5582 24.8905 9.53778 24.8789L0.195353 19.4996C0.136003 19.4655 0.0866894 19.4164 0.0523821 19.3572C0.0180747 19.2979 -1.40098e-05 19.2307 -6.10352e-05 19.1623L-6.10352e-05 3.16168C-6.10352e-05 3.12668 0.0048 3.09266 0.0135499 3.0596C0.0164665 3.04842 0.0232719 3.03821 0.0271608 3.02703C0.0344523 3.00662 0.0412578 2.98571 0.0519521 2.96676C0.0592436 2.95412 0.0699379 2.94391 0.0786878 2.93224C0.0898682 2.91669 0.100076 2.90065 0.113201 2.88703C0.124382 2.87585 0.138965 2.86759 0.151603 2.85787C0.1657 2.8462 0.178339 2.83356 0.194381 2.82433H0.194867L4.86632 0.134714C4.92547 0.100677 4.99252 0.0827637 5.06077 0.0827637C5.12901 0.0827637 5.19606 0.100677 5.25521 0.134714L9.92667 2.82433H9.92764C9.94319 2.83405 9.95632 2.8462 9.97041 2.85738C9.98305 2.8671 9.99715 2.87585 10.0083 2.88655C10.0219 2.90065 10.0317 2.91669 10.0433 2.93224C10.0516 2.94391 10.0628 2.95412 10.0696 2.96676C10.0808 2.9862 10.0871 3.00662 10.0949 3.02703C10.0987 3.03821 10.1056 3.04842 10.1085 3.06009C10.1174 3.09321 10.122 3.12737 10.1221 3.16168V13.1555L14.0148 10.9141V5.80512C14.0148 5.77109 14.0197 5.73658 14.0284 5.70401C14.0318 5.69234 14.0381 5.68213 14.042 5.67095C14.0498 5.65053 14.0566 5.62963 14.0673 5.61067C14.0746 5.59804 14.0853 5.58783 14.0935 5.57616C14.1052 5.56061 14.1149 5.54456 14.1285 5.53095C14.1397 5.51977 14.1538 5.51151 14.1665 5.50179C14.181 5.49012 14.1937 5.47748 14.2092 5.46825H14.2097L18.8817 2.77863C18.9408 2.74455 19.0079 2.72661 19.0761 2.72661C19.1444 2.72661 19.2114 2.74455 19.2706 2.77863L23.942 5.46825C23.9585 5.47797 23.9712 5.49012 23.9858 5.5013C23.9979 5.51102 24.012 5.51977 24.0232 5.53047C24.0368 5.54456 24.0465 5.56061 24.0582 5.57616C24.0669 5.58783 24.0776 5.59804 24.0844 5.61067C24.0956 5.62963 24.1019 5.65053 24.1097 5.67095C24.1141 5.68213 24.1204 5.69234 24.1233 5.70401V5.70401ZM23.3582 10.9141V6.47886L21.7234 7.41995L19.465 8.72028V13.1555L23.3587 10.9141H23.3582ZM18.6867 18.9372V14.4991L16.4652 15.7678L10.1216 19.3883V23.8682L18.6867 18.9372ZM0.778677 3.83494V18.9372L9.34285 23.8678V19.3888L4.86875 16.8567L4.8673 16.8557L4.86535 16.8547C4.85028 16.846 4.83764 16.8334 4.82355 16.8227C4.81139 16.8129 4.7973 16.8052 4.7866 16.7945L4.78563 16.793C4.77299 16.7809 4.76424 16.7658 4.75355 16.7522C4.74383 16.739 4.73216 16.7279 4.72438 16.7143L4.7239 16.7128C4.71515 16.6982 4.7098 16.6807 4.70348 16.6642C4.69716 16.6496 4.6889 16.636 4.68501 16.6204V16.62C4.68015 16.6015 4.67917 16.582 4.67723 16.5631C4.67529 16.5485 4.6714 16.5339 4.6714 16.5193V6.07636L2.41344 4.77555L0.778677 3.83542V3.83494ZM5.06125 0.92123L1.16902 3.16168L5.06028 5.40214L8.95203 3.1612L5.06028 0.92123H5.06125ZM7.08539 14.9035L9.34334 13.6037V3.83494L7.70857 4.77603L5.45014 6.07636V15.8451L7.08539 14.9035ZM19.0761 3.56515L15.1844 5.8056L19.0761 8.04605L22.9674 5.80512L19.0761 3.56515ZM18.6867 8.72028L16.4283 7.41995L14.7935 6.47886V10.9141L17.0515 12.2139L18.6867 13.1555V8.72028ZM9.73174 18.7151L15.4401 15.4562L18.2935 13.8278L14.4047 11.5888L9.92715 14.1666L5.84631 16.5159L9.73174 18.7151Z" fill="white"/>
</g>
<defs>
<clipPath id="clip0_3:103">
<rect width="24.18" height="25" fill="white"/>
</clipPath>
</defs>
</svg>
