<svg width="23" height="25" viewBox="0 0 23 25" fill="none" xmlns="http://www.w3.org/2000/svg">
<g clip-path="url(#clip0_3:99)">
<path d="M10.3284 0.317439C10.9456 -0.0358414 11.7495 -0.0374372 12.3662 0.317439C15.4686 2.07045 18.572 3.82072 21.6738 5.5748C22.2572 5.90343 22.6475 6.55272 22.6415 7.22498V17.7718C22.6459 18.4719 22.2171 19.1367 21.6016 19.4579C18.5094 21.2012 15.4188 22.9467 12.3271 24.69C11.6971 25.0502 10.8771 25.0225 10.2668 24.6328C9.33977 24.0954 8.41114 23.5606 7.48401 23.0237C7.29456 22.9108 7.081 22.8209 6.94722 22.6372C7.06548 22.4778 7.27692 22.458 7.44873 22.3884C7.8357 22.2653 8.1911 22.0678 8.5466 21.8761C8.63649 21.8146 8.74625 21.8382 8.83242 21.8932C9.62515 22.3478 10.4109 22.8155 11.2063 23.2657C11.3759 23.3636 11.5478 23.2336 11.6928 23.1527C14.7272 21.4377 17.7653 19.7292 20.7992 18.0137C20.9116 17.9596 20.9737 17.8403 20.9646 17.7172C20.9667 14.238 20.9651 10.7582 20.9657 7.27905C20.9785 7.13934 20.8977 7.01088 20.7713 6.9537C17.6899 5.21833 14.61 3.48029 11.529 1.74448C11.4757 1.70778 11.4124 1.68809 11.3477 1.688C11.2829 1.6879 11.2196 1.7074 11.1661 1.74395C8.08516 3.48029 5.00582 5.21992 1.92488 6.95521C1.79899 7.01248 1.71451 7.1388 1.72949 7.27905C1.73002 10.7582 1.72949 14.238 1.72949 17.7177C1.72415 17.7778 1.73734 17.8381 1.7673 17.8904C1.79726 17.9428 1.84254 17.9847 1.89704 18.0105C2.71921 18.4767 3.54243 18.9397 4.36513 19.4043C4.8286 19.6538 5.39766 19.802 5.9083 19.6109C6.35892 19.4493 6.67479 18.9894 6.66619 18.511C6.67045 15.0521 6.66406 11.5927 6.66938 8.13437C6.65813 7.98083 6.80378 7.85396 6.95307 7.86841C7.34811 7.86575 7.74367 7.8631 8.13871 7.86948C8.3036 7.86576 8.41708 8.03109 8.39669 8.18579C8.39509 11.6666 8.40094 15.1474 8.39403 18.6282C8.39509 19.5558 8.01398 20.5652 7.15591 21.0191C6.09882 21.5667 4.79226 21.4506 3.74793 20.9255C2.84385 20.4743 1.98109 19.9417 1.09305 19.4583C0.475945 19.1389 0.0492602 18.4714 0.0536041 17.7719V7.22498C0.0471325 6.5388 0.452895 5.87772 1.05449 5.55388C4.14616 3.80911 7.23729 2.06301 10.3284 0.317439Z" fill="white"/>
<path d="M13.0256 7.62325C14.374 7.53645 15.8175 7.57183 17.0309 8.2361C17.9704 8.74515 18.4912 9.81351 18.5078 10.8572C18.4816 10.998 18.3344 11.0757 18.2 11.066C17.8088 11.0655 17.4175 11.0713 17.0262 11.0633C16.8603 11.0697 16.7638 10.9167 16.743 10.77C16.6306 10.2706 16.3582 9.77601 15.8882 9.53514C15.1666 9.17388 14.33 9.19205 13.5432 9.19958C12.9689 9.23008 12.3512 9.27982 11.8646 9.61758C11.491 9.87344 11.3775 10.3899 11.5109 10.8059C11.6366 11.1046 11.9813 11.2009 12.2634 11.2898C13.8884 11.7148 15.6104 11.6725 17.2044 12.2318C17.8644 12.4598 18.5099 12.9031 18.7358 13.594C19.0313 14.5201 18.9018 15.627 18.2429 16.3705C17.7086 16.9823 16.9304 17.3152 16.1542 17.4961C15.1217 17.7263 14.0502 17.7322 13.0016 17.63C12.0156 17.5175 10.9895 17.2585 10.2283 16.5867C9.57743 16.0215 9.25952 15.1409 9.29108 14.291C9.29862 14.1475 9.44152 14.0474 9.57902 14.0592C9.973 14.056 10.367 14.0549 10.7609 14.0597C10.9183 14.0485 11.035 14.1845 11.043 14.3328C11.1157 14.8086 11.2945 15.308 11.7094 15.59C12.5102 16.1066 13.5149 16.0713 14.4317 16.0857C15.1913 16.052 16.044 16.0418 16.6638 15.5398C16.9909 15.2534 17.0878 14.7744 16.9994 14.3622C16.9036 14.0142 16.5396 13.8521 16.227 13.7461C14.6228 13.2386 12.8816 13.4227 11.293 12.8489C10.648 12.621 10.0243 12.19 9.77654 11.5274C9.4308 10.5897 9.58922 9.42973 10.3171 8.71137C11.0269 7.99683 12.0515 7.72165 13.0256 7.62316V7.62325Z" fill="white"/>
</g>
<defs>
<clipPath id="clip0_3:99">
<rect width="22.7" height="25" fill="white"/>
</clipPath>
</defs>
</svg>
