<svg width="31" height="27" viewBox="0 0 31 27" fill="none" xmlns="http://www.w3.org/2000/svg">
<path d="M15.1292 16.1111C16.5849 16.1111 17.7651 14.931 17.7651 13.4752C17.7651 12.0194 16.5849 10.8393 15.1292 10.8393C13.6734 10.8393 12.4933 12.0194 12.4933 13.4752C12.4933 14.931 13.6734 16.1111 15.1292 16.1111Z" fill="white"/>
<path fill-rule="evenodd" clip-rule="evenodd" d="M15.1293 8.11584C18.6683 8.11584 21.956 8.62367 24.435 9.47707C27.4217 10.5053 29.2581 12.0639 29.2581 13.4752C29.2581 14.9459 27.3119 16.6017 24.1045 17.6643C21.6797 18.4677 18.4888 18.8871 15.1293 18.8871C11.6849 18.8871 8.42324 18.4935 5.97107 17.6555C2.86863 16.5951 1 14.9179 1 13.4752C1 12.0754 2.75335 10.5288 5.69811 9.50213C8.18627 8.63465 11.5552 8.11584 15.1288 8.11584H15.1293Z" stroke="white" stroke-width="1.5"/>
<path fill-rule="evenodd" clip-rule="evenodd" d="M10.4637 10.811C12.2318 7.74523 14.3141 5.15087 16.2918 3.42978C18.6746 1.35613 20.9422 0.54403 22.1647 1.249C23.4388 1.9837 23.9008 4.49687 23.2191 7.80612C22.7042 10.3081 21.4729 13.2817 19.7946 16.1919C18.0738 19.1757 16.1034 21.8046 14.1527 23.5097C11.6842 25.6675 9.29772 26.4484 8.04799 25.7277C6.8353 25.0289 6.37156 22.7369 6.95331 19.673C7.44485 17.0842 8.6784 13.9067 10.4632 10.8109L10.4637 10.811Z" stroke="white" stroke-width="1.5"/>
<path fill-rule="evenodd" clip-rule="evenodd" d="M10.4682 16.1997C8.69511 13.1374 7.48794 10.0371 6.98406 7.46423C6.3775 4.36421 6.80636 1.99401 8.02776 1.28699C9.30056 0.550133 11.7086 1.4049 14.2352 3.64826C16.1454 5.34434 18.1069 7.89566 19.7901 10.8032C21.5159 13.7841 22.8093 16.8041 23.3124 19.3457C23.9491 22.562 23.4338 25.0195 22.1852 25.7422C20.9737 26.4436 18.7568 25.701 16.3929 23.6668C14.3956 21.9481 12.2587 19.2925 10.4682 16.1997V16.1997Z" stroke="white" stroke-width="1.5"/>
</svg>
