<svg width="34" height="25" viewBox="0 0 34 25" fill="none" xmlns="http://www.w3.org/2000/svg">
<g clip-path="url(#clip0_3:74)">
<path d="M28.7019 14.3692C27.539 14.3753 26.5283 14.6554 25.6819 15.0694C25.3714 14.4545 25.0609 13.9065 25.0061 13.5046C24.9452 13.0358 24.8721 12.7497 24.9452 12.1895C25.0183 11.6293 25.3471 10.8317 25.341 10.7708C25.3349 10.71 25.2679 10.4238 24.5982 10.4177C23.9284 10.4116 23.35 10.5456 23.283 10.7221C23.216 10.8987 23.0882 11.3006 23.0029 11.7146C22.8872 12.3234 21.6634 14.4971 20.9632 15.6357C20.738 15.1912 20.5431 14.8015 20.5005 14.491C20.4396 14.0222 20.3665 13.736 20.4396 13.1759C20.5127 12.6157 20.8415 11.8181 20.8354 11.7572C20.8293 11.6963 20.7623 11.4102 20.0926 11.4041C19.4228 11.398 18.8444 11.5319 18.7774 11.7085C18.7104 11.8851 18.6374 12.2991 18.4973 12.7009C18.3573 13.1028 16.7316 16.7316 16.3054 17.6693C16.0862 18.1503 15.8975 18.5339 15.7635 18.7957C15.7635 18.7957 15.7574 18.8139 15.7392 18.8444C15.6235 19.0697 15.5565 19.1914 15.5565 19.1914C15.5565 19.1914 15.5565 19.1914 15.5565 19.1975C15.4652 19.3619 15.3678 19.5141 15.3191 19.5141C15.2825 19.5141 15.2155 19.0758 15.3312 18.4791C15.5748 17.2187 16.1532 15.2582 16.1471 15.1912C16.1471 15.1547 16.2567 14.8137 15.7696 14.6371C15.2947 14.4606 15.1242 14.7528 15.0816 14.7528C15.039 14.7528 15.0085 14.8563 15.0085 14.8563C15.0085 14.8563 15.5382 12.6522 13.9978 12.6522C13.0358 12.6522 11.7085 13.7056 11.0509 14.6554C10.6369 14.8807 9.75403 15.3617 8.81029 15.8792C8.45106 16.0801 8.07965 16.2811 7.7326 16.4698C7.70824 16.4455 7.68389 16.415 7.65953 16.3907C5.79641 14.3997 2.35023 12.9932 2.49636 10.3203C2.55115 9.3461 2.88603 6.78886 9.11472 3.68365C14.2414 1.15686 18.3208 1.85706 19.027 3.40966C20.0378 5.62593 16.8412 9.74186 11.5441 10.3385C9.52266 10.5638 8.46323 9.78448 8.19533 9.49222C7.91526 9.18779 7.87263 9.16953 7.76913 9.23041C7.59865 9.32174 7.70824 9.59573 7.76913 9.75404C7.92743 10.1681 8.57892 10.8987 9.68096 11.2579C10.6551 11.5745 13.0236 11.7511 15.8914 10.643C19.1001 9.4009 21.6086 5.94863 20.8719 3.05652C20.1352 0.121792 15.2643 -0.846303 10.6551 0.791544C7.91525 1.76573 4.94399 3.30007 2.80688 5.29714C0.26791 7.67172 -0.133941 9.73577 0.0304527 10.6004C0.621052 13.669 4.85266 15.6661 6.54531 17.1457C6.46007 17.1944 6.38092 17.237 6.31394 17.2735C5.46762 17.6936 2.24063 19.3802 1.43693 21.1642C0.523634 23.1856 1.58306 24.6347 2.28325 24.8295C4.4569 25.4323 6.69144 24.3485 7.8909 22.5585C9.09036 20.7684 8.94424 18.4425 8.39017 17.377C8.38408 17.3648 8.37799 17.3527 8.36581 17.3405C8.58501 17.2126 8.81029 17.0787 9.02948 16.9508C9.46177 16.6951 9.88798 16.4576 10.2533 16.2628C10.0463 16.829 9.89407 17.5049 9.821 18.4791C9.72967 19.6237 10.1985 21.1094 10.8135 21.6939C11.0874 21.9496 11.4101 21.9557 11.6172 21.9557C12.3356 21.9557 12.6583 21.359 13.0175 20.6527C13.4559 19.7881 13.8517 18.7835 13.8517 18.7835C13.8517 18.7835 13.3585 21.499 14.698 21.499C15.1851 21.499 15.6783 20.8658 15.8975 20.5431C15.8975 20.5492 15.8975 20.5492 15.8975 20.5492C15.8975 20.5492 15.9097 20.5309 15.934 20.4883C15.9827 20.4092 16.0132 20.3605 16.0132 20.3605C16.0132 20.3605 16.0132 20.3544 16.0132 20.3483C16.208 20.0073 16.6464 19.2341 17.2979 17.9494C18.1381 16.2932 18.9479 14.2231 18.9479 14.2231C18.9479 14.2231 19.021 14.7285 19.2706 15.5687C19.4167 16.0619 19.7211 16.6038 19.9647 17.1274C19.7699 17.4014 19.6481 17.5536 19.6481 17.5536C19.6481 17.5536 19.6481 17.5536 19.6542 17.5597C19.4959 17.7667 19.3254 17.992 19.1366 18.2112C18.473 19.0027 17.6815 19.9099 17.5719 20.1717C17.444 20.4822 17.4744 20.7075 17.718 20.8902C17.8946 21.0241 18.2112 21.0424 18.5339 21.0241C19.1305 20.9815 19.5507 20.8354 19.7577 20.7441C20.0804 20.6284 20.4579 20.4518 20.811 20.19C21.4625 19.709 21.8583 19.021 21.8217 18.1138C21.8035 17.6145 21.6391 17.1152 21.4381 16.6464C21.499 16.5611 21.5538 16.4759 21.6147 16.3907C22.6437 14.8868 23.4413 13.2367 23.4413 13.2367C23.4413 13.2367 23.5144 13.7421 23.764 14.5823C23.8858 15.0085 24.1354 15.4713 24.3546 15.9218C23.3865 16.7073 22.7898 17.6206 22.5767 18.2173C22.1931 19.3254 22.4915 19.8247 23.0577 19.9403C23.3135 19.9951 23.6788 19.8734 23.9467 19.7577C24.2876 19.6481 24.6895 19.4593 25.0731 19.1793C25.7246 18.6983 26.3517 18.0285 26.3152 17.1213C26.2969 16.7073 26.1873 16.2993 26.0351 15.9036C26.857 15.5626 27.9165 15.3739 29.2682 15.5322C32.1664 15.8731 32.7387 17.6815 32.6291 18.4425C32.5195 19.2036 31.9106 19.6176 31.7097 19.7455C31.5088 19.8734 31.4418 19.916 31.4601 20.0073C31.4844 20.1413 31.5818 20.1352 31.7523 20.1108C31.9898 20.0682 33.2745 19.4959 33.3293 18.0955C33.4206 16.3054 31.7158 14.351 28.7019 14.3692ZM6.34438 21.907C5.38238 22.9542 4.04287 23.35 3.46445 23.0151C2.84341 22.6559 3.08696 21.1094 4.26815 20.0012C4.98661 19.3254 5.91209 18.6983 6.52704 18.3147C6.66708 18.2294 6.8741 18.1077 7.12373 17.9554C7.16635 17.9311 7.19071 17.9189 7.19071 17.9189C7.23942 17.8885 7.28812 17.858 7.33683 17.8276C7.76913 19.4106 7.3551 20.8049 6.34438 21.907ZM13.3463 17.1457C13.0115 17.9615 12.3113 20.0499 11.8851 19.9343C11.5197 19.8368 11.2945 18.2538 11.812 16.689C12.0738 15.9036 12.6279 14.9659 12.9506 14.6006C13.4742 14.0161 14.0526 13.8213 14.1927 14.0587C14.3692 14.3692 13.5533 16.6342 13.3463 17.1457ZM19.1245 19.9099C18.9844 19.983 18.8505 20.0317 18.7896 19.9951C18.747 19.9708 18.8505 19.8734 18.8505 19.8734C18.8505 19.8734 19.575 19.094 19.8612 18.7409C20.0256 18.5339 20.2204 18.2903 20.4274 18.0163C20.4274 18.0407 20.4274 18.0711 20.4274 18.0955C20.4274 19.0271 19.5263 19.6542 19.1245 19.9099ZM23.5814 18.8931C23.4778 18.82 23.4961 18.5765 23.8432 17.8154C23.9771 17.5171 24.2937 17.0178 24.8356 16.5368C24.8965 16.7316 24.9391 16.9204 24.933 17.0969C24.9269 18.2721 24.0867 18.7104 23.5814 18.8931Z" fill="white"/>
</g>
<defs>
<clipPath id="clip0_3:74">
<rect width="33.3536" height="25" fill="white"/>
</clipPath>
</defs>
</svg>
