<svg width="26" height="25" viewBox="0 0 26 25" fill="none" xmlns="http://www.w3.org/2000/svg">
<path d="M0 0H25.7009V25H0V0Z" fill="#333"/>
<path d="M19.194 10.3154C19.0187 10.2336 18.7968 10.1986 18.5164 10.1986C17.0444 10.1986 16.0631 11.3318 16.0631 13.2126C16.0631 15.3621 17.0678 16.2266 18.3762 16.2266C18.6566 16.2266 18.9603 16.1915 19.1823 16.0981V10.3154H19.194ZM13.9603 13.306C13.9603 10.5841 15.7126 8.45794 18.5865 8.45794C18.8318 8.45794 18.9603 8.45794 19.194 8.4813V5.44393C19.194 5.37384 19.2524 5.32711 19.3108 5.32711H21.1916C21.2851 5.32711 21.3085 5.36216 21.3085 5.42057V16.0981C21.3085 16.4135 21.3085 16.8107 21.3669 17.2429C21.3669 17.3247 21.3669 17.3364 21.2968 17.3714C20.3155 17.8387 19.2874 18.049 18.3061 18.049C15.771 18.049 13.9603 16.4836 13.9603 13.306V13.306ZM9.97663 11.4135L13.2477 17.757C13.3061 17.8504 13.271 17.9439 13.1776 17.9439H11.1449C11.0164 17.9439 10.9579 17.9088 10.8995 17.792C10.1519 16.25 9.39251 14.6495 8.6098 12.9906H8.58643C7.88549 14.556 7.11446 16.2616 6.36679 17.8037C6.30838 17.8971 6.24997 17.9322 6.15651 17.9322H4.21725C4.10043 17.9322 4.08874 17.8387 4.14716 17.7686L7.34811 11.6121L4.2523 5.49066C4.1822 5.3972 4.2523 5.31543 4.33407 5.31543H6.34343C6.46025 5.31543 6.51866 5.33879 6.55371 5.44393C7.2897 6.99766 8.03736 8.52803 8.7383 10.0934H8.76167C9.43924 8.5514 10.1869 6.99766 10.8995 5.4673C10.9579 5.37384 10.993 5.31543 11.1098 5.31543H12.9907C13.0841 5.31543 13.1192 5.38552 13.0608 5.49066L9.97663 11.4135V11.4135Z" fill="#fff"/>
</svg>
