<?xml version="1.0" standalone="no"?>
<svg id="SvgjsSvg1001" width="600" height="600" xmlns="http://www.w3.org/2000/svg" version="1.1" xmlns:xlink="http://www.w3.org/1999/xlink" xmlns:svgjs="http://svgjs.com/svgjs" class="svg-paper" viewBox="0 0 600 600"><title id="SvgjsTitle2125">x=(sin(y)+max(x,y/y))|y=cos(x)|dTest=0.1|sd=0.5|sm=0.2|ts=0.05 | generated with FlowLines</title><g id="SvgjsG2126"><polyline id="SvgjsPolyline2127" points="0,521.08 11.91,519.6 17.9,519.44 23.9,519.69 35.78,521.32 47.4,524.29 58.71,528.29 72.46,534.27 88.57,542.31 125.75,561.84 139.27,568.32 150.3,573.05 164.41,578.15 175.96,581.37 187.74,583.65 199.68,584.84 211.67,584.85 217.65,584.41 226.57,583.21 238.3,580.69 252.64,576.29 266.6,570.81 280.23,564.56 293.63,557.82 328.13,539.63 347.1,530.64 358.26,526.23 366.85,523.55 375.64,521.64 384.57,520.51 393.56,520.12 402.55,520.38 414.49,521.58 426.33,523.54 446.81,528.15 501.97,542.52 519.56,546.31 534.34,548.87 549.22,550.79 564.17,552.01 579.16,552.53 597.15,552.25" fill="none" stroke="#626262" stroke-width="1"/><polyline id="SvgjsPolyline2128" points="2.81,552.3 11.78,551.59 17.77,551.46 29.75,552.15 41.59,554.05 56.09,557.87 70.21,562.92 84,568.82 129.83,591.19 148.98,599.81" fill="none" stroke="#626262" stroke-width="1"/><polyline id="SvgjsPolyline2129" points="2.03,488.89 7.91,487.7 13.87,487.05 22.86,487.22 31.73,488.71 37.51,490.33 43.15,492.35 51.4,495.96 62.03,501.51 77.51,510.7 115.73,534.45 131.43,543.25 144.88,549.89 158.72,555.65 173,560.24 181.76,562.3 187.67,563.34 199.6,564.56 208.6,564.69 214.59,564.39 220.56,563.79 229.44,562.36 243.97,558.65 258.08,553.59 274.46,546.13 290.32,537.61 305.78,528.41 341.42,506.18 357.14,497.42 365.33,493.69 370.99,491.71 379.73,489.6 385.67,488.78 394.66,488.37 403.65,488.81 412.58,489.93 424.35,492.21 441.78,496.72 481.99,508.86 499.31,513.73 516.81,517.96 531.53,520.84 549.35,523.38 564.29,524.67 579.28,525.21 597.27,524.9" fill="none" stroke="#626262" stroke-width="1"/><polyline id="SvgjsPolyline2130" points="279.01,599.76 322.08,578.57 333.02,573.65 346.97,568.13 358.38,564.42 370.05,561.64 378.95,560.32 390.92,559.52 399.91,559.59 408.9,560.15 417.84,561.15 429.69,563 450.25,567.29 505.67,580.62 520.37,583.58 535.17,586.03 550.06,587.86 568.01,589.16 583,589.48 598,589.15" fill="none" stroke="#626262" stroke-width="1"/><polyline id="SvgjsPolyline2131" points="0.81,584.07 12.77,583.18 21.77,583.18 30.74,583.85 39.64,585.16 48.44,587.06 59.97,590.39 71.25,594.48 82.29,599.16" fill="none" stroke="#626262" stroke-width="1"/><polyline id="SvgjsPolyline2132" points="0.27,457.79 8.58,454.36 14.45,453.13 17.44,452.98 23.39,453.68 26.28,454.47 31.83,456.74 39.63,461.21 49.4,468.19 86.75,498.33 103.48,511.01 118.29,521.24 131.04,529.14 141.56,534.92 149.64,538.87 157.9,542.44 166.35,545.56 174.96,548.16 183.73,550.18 192.62,551.56 198.6,552.09 204.59,552.32 213.58,552.05 222.53,551.07 231.37,549.43 240.08,547.16 248.63,544.34 257,541.03 267.88,535.97 275.83,531.77 286.19,525.71 296.28,519.21 306.14,512.37 322.93,499.76 355.56,473.32 365.16,466.14 370.36,463.14 375.85,460.73 381.59,459 387.5,457.97 393.48,457.6 402.47,458.08 411.35,459.49 420.11,461.56 437.31,466.86 474.02,480.01 493.94,486.65 511.25,491.61 528.79,495.64 543.57,498.18 561.46,500.15 579.44,500.93 597.43,500.6" fill="none" stroke="#626262" stroke-width="1"/><polyline id="SvgjsPolyline2133" points="352.8,599.59 364.34,596.32 373.18,594.61 382.11,593.53 394.09,593.03 406.08,593.46 418.02,594.68 429.88,596.52 444.58,599.48" fill="none" stroke="#626262" stroke-width="1"/><polyline id="SvgjsPolyline2134" points="0.5,430.63 7.62,417.43 10.79,409.02 11.49,406.1 12.24,400.16 12.8,385.18 13.46,382.26 14.73,379.55 17.14,377.96 19.65,379.37 20.98,382.04 21.67,384.95 22.01,387.93 22.51,402.92 22.98,405.88 24.55,411.66 26.8,417.22 29.49,422.59 35.69,432.85 40.83,440.24 48.15,449.75 55.89,458.92 63.97,467.79 80.99,484.71 89.89,492.75 99.06,500.49" fill="none" stroke="#626262" stroke-width="1"/><polyline id="SvgjsPolyline2135" points="1.98,292.45 10.91,291.43 19.9,291.58 28.8,292.9 37.45,295.35 45.73,298.86 50.99,301.75 56.01,305.04 63.01,310.69 69.3,317.12 74.8,324.23 79.42,331.95 83.11,340.15 85.86,348.72 87.74,357.52 89.11,369.43 89.58,381.42 89.88,408.42 90.5,417.4 91.71,426.31 94.44,437.99 97.4,446.49 101.13,454.68 105.55,462.51 112.4,472.36 116.18,477.01 122.25,483.66 128.75,489.88 135.56,495.77 142.69,501.25 147.65,504.63 155.35,509.28 160.67,512.07 171.68,516.82 183.15,520.34 191.97,522.07 197.93,522.76 203.92,523.08 212.92,522.82 224.79,521.14 236.37,518.03 244.79,514.85 250.25,512.36 255.57,509.6 263.3,504.99 275.44,496.19 282.23,490.28 288.61,483.94 294.55,477.18 298.22,472.44 304.81,462.41 310.21,451.7 313.38,443.28 316.37,431.67 317.74,422.78 318.49,413.81 318.97,380.82 319.65,368.84 320.34,362.88 321.98,354.03 323.52,348.23 325.47,342.56 329.14,334.35 332.11,329.13 335.46,324.16 341.19,317.22 345.43,312.98 352.37,307.26 357.35,303.92 362.59,300.99 368.11,298.65 373.83,296.87 379.7,295.61 385.65,294.83 397.63,294.49 403.62,294.85 412.55,295.93 424.33,298.2 441.7,302.91 455.95,307.59 501.19,323.64 515.52,328.06 530.04,331.84 547.71,335.25 562.6,337.05 580.57,337.89 598.56,337.42" fill="none" stroke="#626262" stroke-width="1"/><polyline id="SvgjsPolyline2136" points="106.1,503.3 115.69,510.51 128.13,518.89 141.09,526.43 151.86,531.73 162.98,536.22 171.55,538.97 183.23,541.69 192.14,542.93 201.13,543.44 210.12,543.2 219.07,542.22 230.82,539.82 239.45,537.26 250.65,532.99 261.49,527.84 271.95,521.96 282.03,515.46 291.74,508.4 301.07,500.86 312.17,490.78 320.56,482.2 328.42,473.13 335.62,463.53 340.44,455.94 344.65,447.99 349.13,436.86 350.93,431.14 352.88,422.36 353.7,416.41 354.33,407.44 354.6,383.44 355.09,374.45 356.3,365.54 358.55,356.83 360.78,351.27 362.22,348.64 365.86,343.88 368.03,341.81 372.94,338.38 375.62,337.03 381.27,335.04 390.14,333.6 399.13,333.64 405.1,334.3 411,335.37 422.59,338.46 433.9,342.46 444.99,347.06 485.78,366.05 502.32,373.14 519.23,379.29 533.65,383.45 542.42,385.44 551.28,387.04 566.17,388.79 581.15,389.43 599.14,388.86" fill="none" stroke="#626262" stroke-width="1"/><polyline id="SvgjsPolyline2137" points="311.93,499.11 327.47,484.99 342,469.83 351.57,458.28 363.68,441.13 369.68,434.44 374.41,430.76 379.77,428.09 385.57,426.6 391.53,425.94 397.53,425.97 403.48,426.72 409.34,428 417.96,430.57 431.98,435.89 467.78,451.38 487.25,459.22 504.25,465.15 521.55,470.1 539.15,473.88 551.01,475.68 559.96,476.65 577.93,477.61 598.92,477.19" fill="none" stroke="#626262" stroke-width="1"/><polyline id="SvgjsPolyline2138" points="1.56,351.29 3.99,349.53 6.63,348.12 9.46,347.12 12.4,346.57 18.4,346.45 21.36,346.88 24.22,347.79 26.9,349.12 29.37,350.83 31.58,352.85 35.23,357.6 36.67,360.23 38.88,365.8 40.8,374.58 41.55,383.55 41.97,407.54 42.94,416.49 44.15,422.36 46.85,430.94 50.52,439.16 54.93,447 59.91,454.49" fill="none" stroke="#626262" stroke-width="1"/><polyline id="SvgjsPolyline2139" points="0.69,260.79 9.64,259.78 15.63,259.49 27.61,260.03 33.55,260.84 42.35,262.7 48.12,264.35 56.59,267.39 64.82,271.04 70.15,273.79 77.92,278.32 85.4,283.32 92.58,288.75 99.44,294.57 110.1,305.12 119.62,316.71 126.21,326.72 129.11,331.98 132.86,340.16 136.66,351.53 138.57,360.32 140.01,372.23 140.51,384.22 140.71,408.22 141.83,423.17 143.37,432.03 144.87,437.84 147.93,446.3 150.53,451.71 155.27,459.35 160.97,466.3 167.56,472.42 172.4,475.97 180.22,480.41 188.59,483.68 197.36,485.66 203.34,486.22 209.33,486.16 218.24,484.91 224.02,483.33 232.34,479.9 240.07,475.32 244.84,471.68 251.32,465.44 256.91,458.4 261.52,450.67 264.03,445.23 266.09,439.59 268.38,430.89 269.82,422.01 270.59,413.05 271.09,380.05 272.21,365.1 273.72,356.23 275.15,350.41 277.97,341.86 281.58,333.62 285.89,325.72 292.58,315.77 300.18,306.48 308.52,297.86 317.5,289.91 327.05,282.65 337.14,276.16 347.74,270.54 356,266.96 361.64,264.92 367.4,263.25 376.21,261.44 382.16,260.67 391.14,260.12 400.14,260.21 409.12,260.86 423.96,262.97 438.64,266.05 456.06,270.59 505.09,284.62 519.66,288.18 534.36,291.15 549.19,293.4 564.12,294.84 579.11,295.44 597.1,295.12" fill="none" stroke="#626262" stroke-width="1"/><polyline id="SvgjsPolyline2140" points="356.4,441.37 358.69,435.83 367.51,410.31 370.04,404.87 373.34,399.87 375.39,397.68 377.72,395.8 380.31,394.29 383.1,393.18 388.92,391.74 394.89,391.29 400.86,391.84 406.72,393.11 412.46,394.86 420.86,398.09 434.46,404.4 466.52,420.79 482.76,428.53 502.16,436.57 519.23,442.28 530.82,445.37 539.61,447.28 557.4,450.01 566.36,450.82 578.35,451.34 590.35,451.27 599.34,450.85" fill="none" stroke="#626262" stroke-width="1"/><polyline id="SvgjsPolyline2141" points="0.26,229.06 9.22,228.17 18.21,227.9 24.21,228.1 33.16,228.98 42.03,230.52 50.77,232.65 59.36,235.33 67.79,238.47 84.17,245.92 102.57,256.04 117.87,265.52 155.38,290.38 170.8,299.65 178.83,303.72 187.16,307.1 195.84,309.47 201.78,310.29 207.78,310.41 216.69,309.26 225.33,306.76 233.62,303.27 241.62,299.14 251.94,293.03 302.13,260.16 315.03,252.5 325.59,246.8 339.14,240.38 353.14,234.99 364.66,231.64 376.45,229.47 388.4,228.44 400.4,228.45 412.36,229.33 424.26,230.93 436.06,233.09 447.78,235.65 491.4,246.74 511.83,251.57 526.54,254.51 541.35,256.86 556.26,258.53 568.23,259.33 583.23,259.66 598.22,259.3" fill="none" stroke="#626262" stroke-width="1"/><polyline id="SvgjsPolyline2142" points="2.87,241.11 8.86,240.65 17.85,240.58 26.83,241.24 35.72,242.6 41.58,243.88 50.25,246.32 58.73,249.31 67.03,252.8 75.12,256.72 83.03,261.02 93.27,267.27 103.19,274.02 119.82,286.85 128.9,294.69 137.67,302.88 150.18,315.81 159.86,327.27 170.38,341.86 176.35,352.27 178.84,357.73 180.92,363.35 183.11,372.08 183.95,378.02 184.37,384 184.86,407.99 186.11,416.9 187.78,422.65 190.38,428.05 194.08,432.75 196.38,434.67 198.96,436.2 201.77,437.25 204.72,437.74 207.71,437.65 210.63,436.98 213.37,435.77 215.87,434.11 218.08,432.09 219.99,429.77 222.94,424.57 224.91,418.9 226.46,410.05 226.86,404.06 227.37,380.07 228.57,371.16 229.98,365.33 233.02,356.87 236.98,348.79 241.63,341.08 248.58,331.3 258.13,319.74 270.5,306.67 283.65,294.38 297.5,282.89 312.04,272.29 324.72,264.27 335.24,258.5 348.89,252.3 357.34,249.21 363.08,247.47 368.91,246.06 377.78,244.55 383.75,243.93 392.74,243.53 401.74,243.71 410.71,244.4 425.56,246.48 440.27,249.43 454.84,252.97 504.13,266.09 518.75,269.44 533.48,272.26 551.3,274.74 566.25,275.97 581.24,276.43 599.24,276" fill="none" stroke="#626262" stroke-width="1"/><polyline id="SvgjsPolyline2143" points="0.27,197.37 15.22,196.26 27.21,196.66 33.18,197.3 42.05,198.78 56.58,202.48 70.74,207.41 87.29,214.5 100.8,221.02 138.21,240.1 149.06,245.23 160.1,249.93 171.39,253.99 180.04,256.46 191.81,258.77 200.77,259.64 209.76,259.68 221.69,258.47 233.42,255.96 244.88,252.39 256.05,248.03 267.01,243.13 315.21,218.79 328.79,212.42 339.85,207.77 351.13,203.68 362.65,200.33 371.46,198.5 383.37,197.05 392.36,196.66 404.35,196.97 416.3,198.08 428.17,199.83 451.67,204.66 507.1,217.95 521.81,220.88 539.59,223.69 554.5,225.34 569.46,226.3 584.46,226.56 599.45,226.17" fill="none" stroke="#626262" stroke-width="1"/><polyline id="SvgjsPolyline2144" points="0.38,165.73 9.33,164.78 15.32,164.5 27.31,164.95 39.17,166.7 53.69,170.43 65.02,174.38 78.86,180.16 92.44,186.53 130.06,205.2 143.71,211.42 154.83,215.92 166.18,219.84 177.75,222.98 189.55,225.15 201.5,226.19 213.5,226.01 225.41,224.63 237.15,222.16 248.66,218.77 262.72,213.55 273.73,208.79 287.29,202.38 324.92,183.72 344.15,175.29 355.43,171.19 364.06,168.65 375.82,166.28 384.76,165.31 393.75,164.98 405.74,165.42 417.67,166.7 426.56,168.11 447.12,172.38 505.39,186.68 523.04,190.21 537.85,192.57 552.75,194.28 567.71,195.31 582.71,195.65 597.7,195.34" fill="none" stroke="#626262" stroke-width="1"/><polyline id="SvgjsPolyline2145" points="0.19,134.16 12.08,132.64 18.08,132.48 24.07,132.77 30.03,133.48 35.92,134.6 47.47,137.86 58.66,142.17 69.56,147.19 82.88,154.08 125.01,177.09 138.46,183.71 149.45,188.54 163.51,193.76 175.04,197.07 186.8,199.44 198.73,200.72 210.72,200.82 216.71,200.43 225.63,199.29 240.28,196.08 254.55,191.48 268.44,185.81 281.99,179.38 295.28,172.44 334.75,150.83 350.95,142.99 359.28,139.57 367.82,136.76 376.6,134.78 385.52,133.64 394.51,133.3 403.5,133.65 412.45,134.58 424.29,136.53 444.75,141.24 499.78,156.1 517.34,160.06 535.06,163.23 552.92,165.45 567.88,166.51 582.87,166.85 597.87,166.52" fill="none" stroke="#626262" stroke-width="1"/><polyline id="SvgjsPolyline2146" points="1.86,102.03 10.64,100.1 19.62,99.7 28.52,100.94 34.3,102.55 39.92,104.65 48.07,108.48 58.51,114.38 71.16,122.44 111.11,149.05 126.53,158.32 139.75,165.4 156.16,172.79 170.33,177.7 179.04,179.97 184.92,181.15 196.82,182.67 202.81,182.98 211.81,182.85 217.79,182.39 226.7,181.13 235.5,179.25 241.28,177.67 249.84,174.87 258.23,171.62 274.53,164 292.84,153.72 310.57,142.48 345.46,119.1 360.89,109.83 369.06,106.08 374.75,104.18 380.59,102.81 386.53,101.95 395.52,101.59 404.5,102.15 413.4,103.44 422.21,105.26 439.59,109.94 479.62,122.65 496.88,127.76 514.32,132.24 531.95,135.85 549.76,138.43 564.7,139.73 579.69,140.26 597.68,139.93" fill="none" stroke="#626262" stroke-width="1"/><polyline id="SvgjsPolyline2147" points="1.68,69.66 6.74,66.43 9.43,65.11 12.25,64.09 15.18,63.48 18.18,63.38 21.14,63.8 26.75,65.89 31.88,68.99 38.99,74.5 74.51,106.78 92.82,122.3 111.92,136.82 126.9,146.8 134.62,151.42 145.19,157.1 153.33,160.94 161.66,164.36 170.16,167.29 178.84,169.67 187.66,171.43 196.6,172.52 205.59,172.9 214.58,172.55 223.51,171.49 232.34,169.75 241.02,167.39 252.34,163.39 263.32,158.57 271.34,154.49 281.76,148.54 291.89,142.11 301.75,135.27 313.73,126.25 332.23,110.96 361.08,84.72 368.15,79.16 373.3,76.09 378.8,73.71 381.67,72.82 387.55,71.64 393.53,71.22 402.5,71.76 411.36,73.32 420.07,75.58 437.15,81.25 473.62,95.08 490.59,101.06 510.69,107.16 528.19,111.36 545.92,114.43 563.82,116.29 581.81,116.93 599.8,116.45" fill="none" stroke="#626262" stroke-width="1"/><polyline id="SvgjsPolyline2148" points="0.87,45.5 2.53,39.74 3.94,30.85 4.39,24.87 4.57,9.87 5.47,0.93" fill="none" stroke="#626262" stroke-width="1"/><polyline id="SvgjsPolyline2149" points="33.42,2.31 33.83,23.31 34.27,29.29 36.35,41.1 39.12,49.65 41.56,55.14 44.37,60.44 47.46,65.58 52.53,73.01 61.79,84.81 73.85,98.16" fill="none" stroke="#626262" stroke-width="1"/><polyline id="SvgjsPolyline2150" points="85.09,0.89 85.28,24.89 85.8,36.88 87.26,48.78 89.18,57.57 92.96,68.95 98.08,79.8 104.38,90.01 111.5,99.66 121.53,110.81 132.67,120.84 144.78,129.69 149.86,132.87 157.75,137.21 165.91,140.99 171.5,143.16 183,146.6 194.81,148.68 206.78,149.3 218.74,148.43 224.66,147.44 233.4,145.3 244.72,141.35 250.22,138.94 258.23,134.83 268.44,128.55 280.42,119.53 291.42,109.34 297.49,102.7 301.28,98.05 308.17,88.23 313.97,77.73 318.48,66.62 320.95,57.97 322.63,49.13 323.83,37.19 324.44,1.2" fill="none" stroke="#626262" stroke-width="1"/><polyline id="SvgjsPolyline2151" points="225.45,165.16 231.3,163.8 239.92,161.23 253.87,155.73 267.25,148.95 280.04,141.14 294.66,130.63 308.45,119.08 321.37,106.54 331.31,95.32 338.57,85.77 344.97,75.62 350.19,64.83 353.12,56.32 355.75,44.62 356.85,35.69 357.28,26.7 357.6,2.7" fill="none" stroke="#626262" stroke-width="1"/><polyline id="SvgjsPolyline2152" points="345.34,86.65 354.14,74.51 363.18,58.95 366.42,53.91 370.11,49.18 372.2,47.03 376.97,43.4 382.45,41 385.37,40.3 394.31,39.41 400.29,39.84 406.19,40.94 417.67,44.41 431.58,50 467.06,66.2 483.61,73.27 503.3,80.57 520.54,85.74 538.09,89.71 546.96,91.2 558.87,92.66 576.84,93.72 597.83,93.38" fill="none" stroke="#626262" stroke-width="1"/><polyline id="SvgjsPolyline2153" points="116.58,0.03 117.09,36.03 117.76,45 119.03,53.91 121.88,65.56 124.98,74 128.92,82.09 133.66,89.74 139.13,96.87 147.45,105.52 156.77,113.06 164.34,117.91 175.11,123.2 183.6,126.16 189.42,127.62 195.33,128.65 204.3,129.34 213.29,128.99 219.23,128.18 225.1,126.92 233.69,124.25 239.24,121.97 244.62,119.32 254.81,113.01 264.13,105.46 272.43,96.8 277.9,89.66 282.63,82.01 286.56,73.92 289.66,65.47 292.49,53.82 293.75,44.91 294.42,35.93 294.86,2.94" fill="none" stroke="#626262" stroke-width="1"/><polyline id="SvgjsPolyline2154" points="360.46,50.95 365.86,30.65 367.67,24.93 370.02,19.42 373.25,14.38 375.31,12.19 377.66,10.34 380.27,8.86 383.07,7.78 385.98,7.08 391.93,6.35 397.93,6.45 403.85,7.38 409.65,8.89 420.91,13.04 434.5,19.38 466.42,36.02 482.58,43.95 501.89,52.19 518.9,58.07 536.31,62.62 548.1,64.84 557.02,66.06 568.97,67.1 577.97,67.46 586.96,67.47 598.95,66.99" fill="none" stroke="#626262" stroke-width="1"/><polyline id="SvgjsPolyline2155" points="148.14,2.15 148.52,32.14 149.1,41.12 149.83,47.08 151.59,55.9 153.3,61.65 156.75,69.96 159.66,75.2 164.96,82.47 169.07,86.83 176.04,92.51 181.15,95.64 189.39,99.23 195.18,100.82 201.1,101.72 207.1,101.92 213.07,101.41 218.94,100.19 224.64,98.31 232.69,94.31 239.98,89.05 244.33,84.93 248.24,80.38 253.21,72.88 255.9,67.52 258.1,61.94 259.83,56.2 261.63,47.38 262.38,41.43 262.98,32.45 263.36,2.46" fill="none" stroke="#626262" stroke-width="1"/><polyline id="SvgjsPolyline2156" points="467.86,1.23 486.66,10.57 503.13,17.83 520.03,24.02 534.45,28.13 549.14,31.17 558.05,32.45 567,33.32 581.99,33.89 599.97,33.27" fill="none" stroke="#626262" stroke-width="1"/><polyline id="SvgjsPolyline2157" points="179.61,0.94 180.61,33.91 182,42.79 183.7,48.54 186.21,53.98 187.82,56.52 191.76,61.03 196.67,64.45 199.42,65.62 202.32,66.38 205.31,66.68 208.3,66.52 211.23,65.89 214.04,64.84 216.66,63.4 219.07,61.61 223.17,57.24 224.84,54.75 227.48,49.38 229.3,43.66 230.81,34.8 231.34,25.82 231.44,10.82 231.82,1.83" fill="none" stroke="#626262" stroke-width="1"/><polyline id="SvgjsPolyline2158" points="554.33,0.1 563.27,1.14 575.24,1.9 587.24,1.98 599.23,1.45" fill="none" stroke="#626262" stroke-width="1"/></g></svg>